<svg width="32" height="32" viewBox="0 0 32 32" fill="none" xmlns="http://www.w3.org/2000/svg">
<path d="M27.9125 14.5C27.9673 14.9981 27.9965 15.4988 28 16C28 18.2338 27.3765 20.4234 26.1997 22.3221C25.0228 24.2209 23.3393 25.7534 21.3386 26.7472C19.338 27.741 17.0997 28.1567 14.8756 27.9474C12.6516 27.7381 10.5301 26.9121 8.75001 25.5625C11.825 24.7875 15.4375 23.25 19 21.2C22.5625 19.15 25.7 16.775 27.9125 14.5ZM30.725 7.49997C30.0375 6.31247 28.1875 5.19997 23.25 6.43747C21.4699 5.08783 19.3484 4.26187 17.1244 4.05255C14.9003 3.84324 12.662 4.25889 10.6614 5.25271C8.66074 6.24654 6.97723 7.77907 5.80035 9.67781C4.62348 11.5765 3.99997 13.7661 4.00001 16C4.00352 16.5011 4.03272 17.0018 4.08751 17.5C0.550006 21.15 0.600006 23.3125 1.27501 24.5C1.73751 25.3 2.76251 26.1 5.00001 26.1C6.07365 26.0795 7.1421 25.9454 8.18751 25.7L8.75001 25.5625C8.10816 25.0644 7.51394 24.5079 6.97501 23.9C4.63751 24.3125 3.31251 24.025 3.01251 23.5C2.82501 23.175 2.92501 22.5625 3.30001 21.825C3.67251 21.1276 4.12108 20.4736 4.63751 19.875C5.14413 21.3574 5.93849 22.7252 6.97501 23.9L7.75001 23.7375C10.75 23.075 14.3875 21.55 18 19.4625C21.6125 17.375 24.75 14.9875 26.825 12.725C27.0145 12.5344 27.1939 12.3341 27.3625 12.125C26.8559 10.6425 26.0615 9.27469 25.025 8.09997C25.807 7.94746 26.6038 7.88455 27.4 7.91247C28.225 7.96247 28.8 8.17497 28.9875 8.49997C29.2875 9.02497 28.875 10.3125 27.3625 12.125C27.6176 12.8983 27.8016 13.6932 27.9125 14.5L28.3 14.0875C31.4625 10.65 31.3625 8.61247 30.725 7.49997Z" fill="#0F172A"/>
</svg>
